<?xml version="1.0" encoding="UTF-8" standalone="no"?>
<svg
   xmlns:dc="http://purl.org/dc/elements/1.1/"
   xmlns:cc="http://creativecommons.org/ns#"
   xmlns:rdf="http://www.w3.org/1999/02/22-rdf-syntax-ns#"
   xmlns:svg="http://www.w3.org/2000/svg"
   xmlns="http://www.w3.org/2000/svg"
   xmlns:sodipodi="http://sodipodi.sourceforge.net/DTD/sodipodi-0.dtd"
   xmlns:inkscape="http://www.inkscape.org/namespaces/inkscape"
   version="1.1"
   id="svg692"
   xml:space="preserve"
   width="67.66669"
   height="67.66669"
   viewBox="0 0 668.66669 668.66669"
   sodipodi:docname="CTlogowebsite.svg"
   inkscape:version="1.0 (b51213c273, 2020-08-10)"><metadata
     id="metadata698"><rdf:RDF><cc:Work
         rdf:about=""><dc:format>image/svg+xml</dc:format><dc:type
           rdf:resource="http://purl.org/dc/dcmitype/StillImage" /><dc:title /></cc:Work></rdf:RDF></metadata><defs
     id="defs696"><clipPath
       clipPathUnits="userSpaceOnUse"
       id="clipPath708"><path
         d="M 0,500 H 500 V 0 H 0 Z"
         id="path706" /></clipPath></defs><sodipodi:namedview
     pagecolor="#ffffff"
     bordercolor="#666666"
     borderopacity="1"
     objecttolerance="10"
     gridtolerance="10"
     guidetolerance="10"
     inkscape:pageopacity="0"
     inkscape:pageshadow="2"
     inkscape:window-width="1299"
     inkscape:window-height="713"
     id="namedview694"
     showgrid="false"
     inkscape:zoom="0.84899997"
     inkscape:cx="333.33334"
     inkscape:cy="167.77909"
     inkscape:window-x="67"
     inkscape:window-y="27"
     inkscape:window-maximized="1"
     inkscape:current-layer="g702"
     inkscape:document-rotation="0" /><g
     id="g700"
     inkscape:groupmode="layer"
     inkscape:label="CT_logo"
     transform="matrix(1.3333333,0,0,-1.3333333,0,666.66667)"><g
       id="g702"><g
         id="g1634"
         transform="matrix(1.908502,0,0,4.1155434,-98.695386,-1348.5902)"><g
           id="g738"
           transform="matrix(1.8612277,0,0,1.6590752,115.10512,439.49538)"><path
             d="m 0,0 c -0.29,0.51 -0.69,0.95 -1.16,1.29 0,0.01 -0.01,0.01 -0.01,0.01 -0.09,0.06 -0.19,0.13 -0.29,0.19 -0.92,0.62 -1.91,1.17 -2.96,1.64 -0.076,0.034 -0.154,0.056 -0.231,0.089 0.406,-0.233 0.808,-0.471 1.191,-0.729 0.1,-0.06 0.2,-0.13 0.29,-0.19 0,0 0.01,0 0.01,-0.01 C -2.69,1.95 -2.29,1.51 -2,1 c 0.36,-0.62 0.57,-1.35 0.57,-2.13 0,-2.34 -1.89,-4.23 -4.23,-4.23 -0.4,0 -0.78,0.05 -1.15,0.16 l -0.07,0.03 c -0.19,0.08 -0.38,0.16 -0.58,0.21 -2.25,0.68 -4.71,-0.41 -5.7,-2.61 -0.34,-0.77 -0.46,-1.58 -0.38,-2.36 0.01,-0.03 0.01,-0.05 0.01,-0.07 v -0.03 -0.02 c 0,-0.02 0,-0.05 -0.02,-0.07 v -0.01 c -0.04,-0.18 -0.2,-0.31 -0.39,-0.31 -0.06,0 -0.12,0.01 -0.17,0.04 -2.37,0.56 -4.87,-0.62 -5.89,-2.92 -1.16,-2.61 0,-5.66 2.61,-6.82 0.06,-0.03 0.13,-0.05 0.19,-0.08 0.05,-0.01 0.09,-0.03 0.14,-0.05 0.06,-0.05 0.12,-0.12 0.15,-0.2 0.03,-0.04 0.04,-0.09 0.04,-0.14 -0.01,-0.04 -0.02,-0.09 -0.02,-0.13 v -0.01 c -0.17,-1.96 0.9,-3.9 2.79,-4.74 0.288,-0.127 0.582,-0.217 0.878,-0.285 -1.173,0.992 -1.8,2.499 -1.668,4.025 v 0.01 c 0,0.04 0.01,0.09 0.02,0.13 0,0.05 -0.01,0.1 -0.04,0.14 -0.03,0.08 -0.09,0.15 -0.15,0.2 -0.05,0.02 -0.09,0.04 -0.14,0.05 -0.06,0.03 -0.13,0.05 -0.19,0.08 -2.61,1.16 -3.77,4.21 -2.61,6.82 1.02,2.3 3.52,3.48 5.89,2.92 0.05,-0.03 0.11,-0.04 0.17,-0.04 0.19,0 0.35,0.13 0.39,0.31 v 0.01 c 0.02,0.02 0.02,0.05 0.02,0.07 v 0.02 0.03 c 0,0.02 0,0.04 -0.01,0.07 -0.08,0.78 0.04,1.59 0.38,2.36 0.99,2.2 3.45,3.29 5.7,2.61 0.2,-0.05 0.39,-0.13 0.58,-0.21 l 0.07,-0.03 c 0.37,-0.11 0.75,-0.16 1.15,-0.16 2.34,0 4.23,1.89 4.23,4.23 C 0.57,-1.35 0.36,-0.62 0,0"
             style="fill:#46231f;fill-opacity:1;fill-rule:nonzero;stroke:none"
             id="path740" /></g><g
           id="g742"
           transform="matrix(1.8612277,0,0,1.6590752,101.22036,431.26637)"><path
             d="M 0,0 C 0.2,-0.05 0.39,-0.13 0.58,-0.21 L 0.65,-0.24 C 1.02,-0.35 1.4,-0.4 1.8,-0.4 4.14,-0.4 6.03,1.49 6.03,3.83 6.03,4.61 5.82,5.34 5.46,5.96 5.17,6.47 4.77,6.91 4.3,7.25 4.3,7.26 4.29,7.26 4.29,7.26 4.2,7.32 4.1,7.39 4,7.45 3.08,8.07 2.09,8.62 1.04,9.09 -8.87,13.5 -20.48,9.05 -24.89,-0.85 c -4.42,-9.91 0.03,-21.53 9.93,-25.94 6.07,-2.71 12.78,-2.09 18.07,1.08 0.06,0.03 0.11,0.06 0.16,0.1 0.07,0.07 0.11,0.16 0.11,0.27 0,0.38 -0.38,0.36 -0.48,0.38 -0.49,0.06 -0.98,0.2 -1.46,0.42 -1.66,0.73 -2.77,2.18 -3.14,3.82 -0.02,0.06 -0.03,0.13 -0.04,0.19 -0.06,0.16 -0.22,0.27 -0.4,0.27 -0.06,0 -0.11,-0.01 -0.16,-0.03 -0.03,-0.02 -0.06,-0.04 -0.1,-0.06 -0.02,-0.01 -0.04,-0.02 -0.06,-0.04 -1.24,-0.66 -2.78,-0.76 -4.18,-0.14 -1.89,0.84 -2.96,2.78 -2.79,4.74 v 0.01 c 0,0.04 0.01,0.09 0.02,0.13 0,0.05 -0.01,0.1 -0.04,0.14 -0.03,0.08 -0.09,0.15 -0.15,0.2 -0.05,0.02 -0.09,0.04 -0.14,0.05 -0.06,0.03 -0.13,0.05 -0.19,0.08 -2.61,1.16 -3.77,4.21 -2.61,6.82 1.02,2.3 3.52,3.48 5.89,2.92 0.05,-0.03 0.11,-0.04 0.17,-0.04 0.19,0 0.35,0.13 0.39,0.31 v 0.01 c 0.02,0.02 0.02,0.05 0.02,0.07 v 0.02 0.03 c 0,0.02 0,0.04 -0.01,0.07 -0.08,0.78 0.04,1.59 0.38,2.36 0.99,2.2 3.45,3.29 5.7,2.61"
             style="fill:#cda67d;fill-opacity:1;fill-rule:nonzero;stroke:none"
             id="path744" /></g><g
           id="g746"
           transform="matrix(1.8612277,0,0,1.6590752,89.34833,442.82349)"><path
             d="m 0,0 c 0.254,-0.917 -0.85,-1.722 -1.682,-1.72 -0.873,0.002 -2.037,0.408 -2.745,0.888 -0.726,0.492 -0.485,1.592 0.075,2.134 0.595,0.577 1.059,0.616 1.825,0.317 C -1.77,1.324 -0.257,0.926 0,0"
             style="fill:#46231f;fill-opacity:1;fill-rule:nonzero;stroke:none"
             id="path748" /></g><g
           id="g1561"
           transform="translate(-3.3317819,0.41476661)"><g
             id="g710"
             transform="matrix(1.8612277,0,0,1.6590752,135.40497,400.2843)"><path
               d="M 0,0 C 0.927,0.795 1.39,1.739 1.39,2.833 1.39,3.926 0.927,4.871 0,5.665 -0.927,6.46 -2.053,6.858 -3.38,6.858 -4.716,6.858 -5.848,6.46 -6.775,5.665 -7.701,4.871 -8.164,3.926 -8.164,2.833 c 0,-1.094 0.463,-2.038 1.389,-2.833 0.927,-0.795 2.059,-1.193 3.395,-1.193 1.327,0 2.453,0.398 3.38,1.193 m -2.529,-8.893 c -3.554,0 -6.595,1.086 -9.121,3.258 -2.527,2.172 -3.79,4.807 -3.79,7.906 0,3.098 1.263,5.734 3.79,7.906 2.526,2.172 5.567,3.258 9.121,3.258 3.544,0 6.579,-1.086 9.106,-3.258 2.526,-2.172 3.79,-4.808 3.79,-7.906 0,-3.099 -1.264,-5.734 -3.79,-7.906 C 4.05,-7.807 1.015,-8.893 -2.529,-8.893"
               style="fill:#46231f;fill-opacity:1;fill-rule:nonzero;stroke:none"
               id="path712" /></g><g
             id="g714"
             transform="matrix(1.8612277,0,0,1.6590752,183.61051,399.92377)"><path
               d="M 0,0 C 0.927,0.795 1.39,1.739 1.39,2.833 1.39,3.926 0.927,4.871 0,5.665 -0.927,6.46 -2.054,6.858 -3.381,6.858 c -1.336,0 -2.467,-0.398 -3.394,-1.193 -0.927,-0.794 -1.39,-1.739 -1.39,-2.832 0,-1.094 0.463,-2.038 1.39,-2.833 0.927,-0.795 2.058,-1.193 3.394,-1.193 1.327,0 2.454,0.398 3.381,1.193 m -2.53,-8.893 c -3.553,0 -6.594,1.086 -9.12,3.258 -2.527,2.172 -3.79,4.807 -3.79,7.906 0,3.098 1.263,5.734 3.79,7.906 2.526,2.172 5.567,3.258 9.12,3.258 3.545,0 6.58,-1.086 9.107,-3.258 2.525,-2.172 3.789,-4.808 3.789,-7.906 0,-3.099 -1.264,-5.734 -3.789,-7.906 C 4.05,-7.807 1.015,-8.893 -2.53,-8.893"
               style="fill:#46231f;fill-opacity:1;fill-rule:nonzero;stroke:none"
               id="path716" /></g><g
             id="g718"
             transform="matrix(1.8612277,0,0,1.6590752,217.54579,411.71268)"><path
               d="M 0,0 4.238,7.959 14.839,6.41 5.908,-4.481 14.126,-9.6 6.167,-15.994 1.032,-9.6 l 0.805,-4.708 -8.278,-1.58 V 6.607 l 5.864,-0.638 z"
               style="fill:#46231f;fill-opacity:1;fill-rule:nonzero;stroke:none"
               id="path720" /></g><g
             id="g722"
             transform="matrix(1.8612277,0,0,1.6590752,260.03557,422.44756)"><path
               d="m 0,0 1.625,-21.508 -9.706,-1.823 0.41,22.708 z"
               style="fill:#46231f;fill-opacity:1;fill-rule:nonzero;stroke:none"
               id="path724" /></g><g
             id="g726"
             transform="matrix(1.8612277,0,0,1.6590752,296.44825,427.28575)"><path
               d="m 0,0 0.456,-9.159 -9.448,-1.017 0.061,-0.791 5.361,0.623 0.259,-6.212 -5.271,-0.516 0.03,-0.775 9.099,0.683 1.58,-7.989 -19.306,-0.653 1.929,22.905 z"
               style="fill:#46231f;fill-opacity:1;fill-rule:nonzero;stroke:none"
               id="path728" /></g><g
             id="g730"
             transform="matrix(1.8612277,0,0,1.6590752,110.34056,388.19678)"><path
               d="M 0,0 C -0.49,0.06 -0.98,0.2 -1.46,0.42 -1.492,0.434 -1.52,0.452 -1.551,0.467 -1.57,0.423 -1.596,0.384 -1.63,0.35 -1.68,0.31 -1.73,0.28 -1.79,0.25 c -5.237,-3.138 -11.864,-3.772 -17.885,-1.156 0.583,-0.335 1.188,-0.645 1.815,-0.924 6.07,-2.71 12.78,-2.09 18.07,1.08 0.06,0.03 0.11,0.06 0.16,0.1 0.07,0.07 0.11,0.16 0.11,0.27 C 0.48,0 0.1,-0.02 0,0"
               style="fill:#46231f;fill-opacity:1;fill-rule:nonzero;stroke:none"
               id="path732" /></g><g
             id="g734"
             transform="matrix(1.8612277,0,0,1.6590752,105.42413,390.07352)"><path
               d="m 0,0 c -1.005,0.791 -1.685,1.897 -1.959,3.109 -0.02,0.06 -0.03,0.13 -0.04,0.19 -0.06,0.16 -0.22,0.27 -0.4,0.27 -0.06,0 -0.11,-0.01 -0.16,-0.03 -0.03,-0.02 -0.06,-0.04 -0.1,-0.06 -0.02,-0.01 -0.04,-0.02 -0.06,-0.04 C -3.002,3.288 -3.302,3.171 -3.611,3.08 -3.077,1.879 -2.12,0.861 -0.819,0.289 -0.548,0.165 -0.275,0.073 0,0"
               style="fill:#46231f;fill-opacity:1;fill-rule:nonzero;stroke:none"
               id="path736" /></g><g
             id="g750"
             transform="matrix(1.8612277,0,0,1.6590752,100.38951,442.85999)"><path
               d="M 0,0 C 0.243,-0.585 0.054,-2.226 -0.724,-2.312 -1.768,-2.428 -2.044,-0.848 -1.85,-0.13 -1.591,0.83 -0.38,0.917 0,0"
               style="fill:#46231f;fill-opacity:1;fill-rule:nonzero;stroke:none"
               id="path752" /></g><g
             id="g754"
             transform="matrix(1.8612277,0,0,1.6590752,71.569697,430.82157)"><path
               d="m 0,0 c -0.21,-1.797 -3.41,-3.569 -4.863,-2.086 -0.699,0.714 -0.025,1.634 0.328,2.426 0.506,1.136 1.061,1.829 2.407,1.542 C -1.081,1.659 0.142,1.214 0,0"
               style="fill:#46231f;fill-opacity:1;fill-rule:nonzero;stroke:none"
               id="path756" /></g><g
             id="g758"
             transform="matrix(1.8612277,0,0,1.6590752,68.134243,405.62171)"><path
               d="M 0,0 C 0.771,-1.319 -0.653,-3.213 -2.034,-2.596 -3.213,-2.069 -4.425,-0.434 -3.333,0.71 -2.402,1.684 -0.594,1.016 0,0"
               style="fill:#46231f;fill-opacity:1;fill-rule:nonzero;stroke:none"
               id="path760" /></g><g
             id="g762"
             transform="matrix(1.8612277,0,0,1.6590752,84.000465,394.6471)"><path
               d="m 0,0 c 0.602,-0.708 0.532,-2.406 -0.5,-2.706 -0.963,-0.28 -2.079,0.96 -2.508,1.657 -0.436,0.708 -0.696,1.557 0.433,1.91 C -1.794,1.104 -0.525,0.617 0,0"
               style="fill:#46231f;fill-opacity:1;fill-rule:nonzero;stroke:none"
               id="path764" /></g><g
             id="g766"
             transform="matrix(1.8612277,0,0,1.6590752,67.180364,418.72658)"><path
               d="M 0,0 C 1.11,-0.799 0.426,-3.288 -0.999,-3.11 -2.56,-2.916 -3.563,-0.294 -1.952,0.481 -1.405,0.744 -0.472,0.339 0,0"
               style="fill:#46231f;fill-opacity:1;fill-rule:nonzero;stroke:none"
               id="path768" /></g><g
             id="g770"
             transform="matrix(1.8612277,0,0,1.6590752,85.493169,432.38625)"><path
               d="m 0,0 c 1.146,-0.872 0.275,-2.681 -0.889,-2.932 -1.104,-0.237 -2.54,0.771 -2.247,2.035 C -2.779,0.65 -1.127,0.858 0,0"
               style="fill:#46231f;fill-opacity:1;fill-rule:nonzero;stroke:none"
               id="path772" /></g><g
             id="g774"
             transform="matrix(1.8612277,0,0,1.6590752,75.374047,406.44611)"><path
               d="M 0,0 C 1.465,-0.094 1.046,-1.374 -0.01,-1.708 -1.227,-2.092 -1.659,-0.574 -0.577,-0.091 -0.419,-0.02 -0.228,0.015 0,0"
               style="fill:#46231f;fill-opacity:1;fill-rule:nonzero;stroke:none"
               id="path776" /></g><g
             id="g778"
             transform="matrix(1.8612277,0,0,1.6590752,102.27735,365.72195)"><path
               d="M 0,0 H 18.57 V -5.972 H 7.154 v -2.209 h 10.638 v -5.256 H 7.154 v -2.364 h 11.571 v -5.972 H 0 Z"
               style="fill:#005fff;fill-opacity:1;fill-rule:nonzero;stroke:none"
               id="path780" /></g><g
             id="g782"
             transform="matrix(1.8612277,0,0,1.6590752,140.77945,365.72195)"><path
               d="M 0,0 H 7.589 L 12.255,-7.652 16.921,0 h 7.589 v -21.773 h -7.247 v 10.793 l -5.008,-7.745 H 12.131 L 7.123,-10.98 V -21.773 H 0 Z"
               style="fill:#005fff;fill-opacity:1;fill-rule:nonzero;stroke:none"
               id="path784" /></g><g
             id="g786"
             transform="matrix(1.8612277,0,0,1.6590752,208.22811,348.02128)"><path
               d="m 0,0 c 1.866,0 3.11,0.84 3.11,2.395 v 0.062 c 0,1.587 -1.15,2.395 -3.079,2.395 h -1.99 L -1.959,0 Z M -9.238,10.669 H 0.56 c 5.785,0 9.736,-2.582 9.736,-7.745 V 2.862 c 0,-5.257 -4.013,-8.056 -9.891,-8.056 h -2.364 v -5.91 h -7.279 z"
               style="fill:#005fff;fill-opacity:1;fill-rule:nonzero;stroke:none"
               id="path788" /></g><g
             id="g790"
             transform="matrix(1.8612277,0,0,1.6590752,230.28943,365.72195)"><path
               d="m 0,0 h 7.278 v -15.552 h 10.234 v -6.221 H 0 Z"
               style="fill:#005fff;fill-opacity:1;fill-rule:nonzero;stroke:none"
               id="path792" /></g><g
             id="g794"
             transform="matrix(1.8612277,0,0,1.6590752,265.8385,365.72195)"><path
               d="M 0,0 H 18.57 V -5.972 H 7.154 v -2.209 h 10.638 v -5.256 H 7.154 v -2.364 h 11.571 v -5.972 H 0 Z"
               style="fill:#005fff;fill-opacity:1;fill-rule:nonzero;stroke:none"
               id="path796" /></g><g
             id="g798"
             transform="matrix(1.8612277,0,0,1.6590752,65.46971,366.8045)"><path
               d="M 0,0 C 0.764,0 1.426,0.435 1.754,1.07 1.724,1.188 1.703,1.31 1.703,1.438 V 8.52 c 0,0.122 0.019,0.238 0.046,0.352 C 1.419,9.501 0.76,9.931 0,9.931 -0.573,9.931 -1.088,9.685 -1.449,9.295 V 0.636 C -1.088,0.246 -0.573,0 0,0"
               style="fill:#005fff;fill-opacity:1;fill-rule:nonzero;stroke:none"
               id="path800" /></g><g
             id="g802"
             transform="matrix(1.8612277,0,0,1.6590752,309.88129,366.82706)"><path
               d="M 0,0 C 0.451,0 0.866,0.153 1.198,0.408 V 9.523 C 0.866,9.778 0.451,9.931 0,9.931 -0.954,9.931 -1.75,9.254 -1.935,8.354 V 1.577 C -1.75,0.677 -0.954,0 0,0"
               style="fill:#005fff;fill-opacity:1;fill-rule:nonzero;stroke:none"
               id="path804" /></g><g
             id="g806"
             transform="matrix(1.8612277,0,0,1.6590752,313.55759,382.86186)"><path
               d="m 0,0 v -9.412 c 0,-0.401 0.325,-0.725 0.725,-0.725 0.4,0 0.725,0.324 0.725,0.725 V 0 C 1.45,0.4 1.125,0.725 0.725,0.725 0.325,0.725 0,0.4 0,0"
               style="fill:#005fff;fill-opacity:1;fill-rule:nonzero;stroke:none"
               id="path808" /></g><g
             id="g810"
             transform="matrix(1.8612277,0,0,1.6590752,74.904831,372.07654)"><path
               d="m 0,0 c 0,0.25 0.203,0.453 0.453,0.453 h 120.205 c 0.25,0 0.453,-0.203 0.453,-0.453 0,-0.25 -0.203,-0.453 -0.453,-0.453 H 0.453 C 0.203,-0.453 0,-0.25 0,0 M 0.453,1.359 C 0.203,1.359 0,1.562 0,1.812 0,2.063 0.203,2.266 0.453,2.266 h 120.205 c 0.25,0 0.453,-0.203 0.453,-0.454 0,-0.25 -0.203,-0.453 -0.453,-0.453 z m 0,1.813 C 0.203,3.172 0,3.375 0,3.625 0,3.875 0.203,4.078 0.453,4.078 h 120.205 c 0.25,0 0.453,-0.203 0.453,-0.453 0,-0.25 -0.203,-0.453 -0.453,-0.453 z M 121.31,4.96 H -0.362 V -1.358 H 121.31 Z"
               style="fill:#005fff;fill-opacity:1;fill-rule:nonzero;stroke:none"
               id="path812" /></g><g
             id="g814"
             transform="matrix(1.8612277,0,0,1.6590752,302.13561,380.93982)"><path
               d="M 0,0 V -0.382 -6.7 -7.082 c 0,-0.4 0.325,-0.725 0.725,-0.725 0.4,0 0.725,0.325 0.725,0.725 V 0 C 1.45,0.4 1.125,0.725 0.725,0.725 0.325,0.725 0,0.4 0,0"
               style="fill:#005fff;fill-opacity:1;fill-rule:nonzero;stroke:none"
               id="path816" /></g><g
             id="g818"
             transform="matrix(1.8612277,0,0,1.6590752,70.085368,369.19025)"><path
               d="M 0,0 C 0,-0.4 0.325,-0.725 0.725,-0.725 1.125,-0.725 1.45,-0.4 1.45,0 V 0.382 6.7 7.082 c 0,0.4 -0.325,0.725 -0.725,0.725 C 0.325,7.807 0,7.482 0,7.082 Z"
               style="fill:#005fff;fill-opacity:1;fill-rule:nonzero;stroke:none"
               id="path820" /></g><g
             id="g822"
             transform="matrix(1.8612277,0,0,1.6590752,61.327547,367.67551)"><path
               d="m 0,0 v 9.412 c 0,0.401 -0.325,0.725 -0.725,0.725 -0.4,0 -0.725,-0.324 -0.725,-0.725 V 0 c 0,-0.4 0.325,-0.725 0.725,-0.725 C -0.325,-0.725 0,-0.4 0,0"
               style="fill:#005fff;fill-opacity:1;fill-rule:nonzero;stroke:none"
               id="path824" /></g><g
             id="g826"
             transform="matrix(1.8612277,0,0,1.6590752,97.365569,335.69667)"><path
               d="M 0,0 C 0,0.764 -0.435,1.426 -1.07,1.754 -1.188,1.724 -1.31,1.703 -1.438,1.703 H -8.52 c -0.122,0 -0.238,0.019 -0.352,0.046 C -9.501,1.419 -9.931,0.76 -9.931,0 c 0,-0.573 0.246,-1.088 0.636,-1.449 h 8.659 C -0.246,-1.088 0,-0.573 0,0"
               style="fill:#005fff;fill-opacity:1;fill-rule:nonzero;stroke:none"
               id="path828" /></g><g
             id="g830"
             transform="matrix(1.8612277,0,0,1.6590752,97.340256,364.14118)"><path
               d="M 0,0 C 0,0.451 -0.153,0.866 -0.408,1.198 H -9.523 C -9.778,0.866 -9.931,0.451 -9.931,0 c 0,-0.954 0.677,-1.75 1.577,-1.935 h 6.777 C -0.677,-1.75 0,-0.954 0,0"
               style="fill:#005fff;fill-opacity:1;fill-rule:nonzero;stroke:none"
               id="path832" /></g><g
             id="g834"
             transform="matrix(1.8612277,0,0,1.6590752,91.451145,344.10719)"><path
               d="m 0,0 c -0.25,0 -0.453,0.203 -0.453,0.453 v 6.032 c 0,0.251 0.203,0.454 0.453,0.454 0.25,0 0.453,-0.203 0.453,-0.454 V 0.453 C 0.453,0.203 0.25,0 0,0 M -1.359,0.453 C -1.359,0.203 -1.562,0 -1.812,0 -2.063,0 -2.266,0.203 -2.266,0.453 v 6.032 c 0,0.251 0.203,0.454 0.454,0.454 0.25,0 0.453,-0.203 0.453,-0.454 z m -1.813,0 C -3.172,0.203 -3.375,0 -3.625,0 -3.875,0 -4.078,0.203 -4.078,0.453 v 6.032 c 0,0.251 0.203,0.454 0.453,0.454 0.25,0 0.453,-0.203 0.453,-0.454 z M -4.96,-0.362 H 1.358 V 7.137 H -4.96 Z"
               style="fill:#005fff;fill-opacity:1;fill-rule:nonzero;stroke:none"
               id="path836" /></g><g
             id="g838"
             transform="matrix(1.8612277,0,0,1.6590752,81.507722,357.23678)"><path
               d="M 0,0 H 0.382 6.7 7.082 c 0.4,0 0.725,0.325 0.725,0.725 0,0.4 -0.325,0.725 -0.725,0.725 H 0 C -0.4,1.45 -0.725,1.125 -0.725,0.725 -0.725,0.325 -0.4,0 0,0"
               style="fill:#005fff;fill-opacity:1;fill-rule:nonzero;stroke:none"
               id="path840" /></g><g
             id="g842"
             transform="matrix(1.8612277,0,0,1.6590752,94.688937,339.81118)"><path
               d="M 0,0 C 0.4,0 0.725,0.325 0.725,0.725 0.725,1.125 0.4,1.45 0,1.45 H -0.382 -6.7 -7.082 c -0.4,0 -0.725,-0.325 -0.725,-0.725 0,-0.4 0.325,-0.725 0.725,-0.725 z"
               style="fill:#005fff;fill-opacity:1;fill-rule:nonzero;stroke:none"
               id="path844" /></g><g
             id="g846"
             transform="matrix(1.8612277,0,0,1.6590752,96.388424,332.00456)"><path
               d="m 0,0 h -9.412 c -0.401,0 -0.725,-0.325 -0.725,-0.725 0,-0.4 0.324,-0.725 0.725,-0.725 H 0 c 0.4,0 0.725,0.325 0.725,0.725 C 0.725,-0.325 0.4,0 0,0"
               style="fill:#005fff;fill-opacity:1;fill-rule:nonzero;stroke:none"
               id="path848" /></g></g></g></g></g></svg>
