<?xml version="1.0" encoding="iso-8859-1"?>
<!-- Generator: Adobe Illustrator 19.0.0, SVG Export Plug-In . SVG Version: 6.00 Build 0)  -->
<svg version="1.1" id="Capa_1" xmlns="http://www.w3.org/2000/svg" xmlns:xlink="http://www.w3.org/1999/xlink" x="0px" y="0px"
	 viewBox="0 0 512.001 512.001" style="enable-background:new 0 0 512.001 512.001;" xml:space="preserve">
<path style="fill:#D388BD;" d="M390.085,132.676h74.897c12.441,0,22.527,10.085,22.527,22.526v215.71
	c0,12.441-10.085,22.527-22.527,22.527h-74.897c-12.441,0-22.527-10.085-22.527-22.527V155.203
	C367.559,142.763,377.644,132.676,390.085,132.676z"/>
<path style="fill:#C476B2;" d="M386.739,370.913v-215.71c0-12.441,10.085-22.527,22.526-22.527h-19.18
	c-12.441,0-22.526,10.085-22.526,22.527v215.71c0,12.441,10.085,22.526,22.526,22.526h19.18
	C396.824,393.44,386.739,383.355,386.739,370.913z"/>
<g>
	<rect x="367.553" y="164.708" style="fill:#AD609F;" width="119.954" height="15.673"/>
	<rect x="367.553" y="345.726" style="fill:#AD609F;" width="119.954" height="15.673"/>
	<path style="fill:#AD609F;" d="M453.656,217.836h-52.245c-4.329,0-7.837-3.509-7.837-7.837c0-4.328,3.508-7.837,7.837-7.837h52.245
		c4.329,0,7.837,3.509,7.837,7.837C461.493,214.327,457.985,217.836,453.656,217.836z"/>
</g>
<path style="fill:#EF6E4B;" d="M60.21,133.681h41.636c12.441,0,22.526,10.085,22.526,22.526v214.707
	c0,12.441-10.085,22.527-22.526,22.527H60.21c-12.441,0-22.526-10.085-22.526-22.527V156.206
	C37.683,143.766,47.769,133.681,60.21,133.681z"/>
<path style="fill:#DB5B3E;" d="M60.95,369.232V157.889c0-13.371,10.839-24.209,24.209-24.209H61.892
	c-13.371,0-24.209,10.839-24.209,24.209v211.342c0,13.371,10.839,24.208,24.209,24.208h23.267
	C71.789,393.44,60.95,382.601,60.95,369.232z"/>
<path style="fill:#BC432F;" d="M81.029,325.028c-4.652,0-8.422-3.771-8.422-8.422V210.515c0-4.651,3.77-8.422,8.422-8.422
	c4.652,0,8.422,3.771,8.422,8.422v106.09C89.451,321.256,85.681,325.028,81.029,325.028z"/>
<path style="fill:#46BEE8;" d="M158.117,1.535h35.613c12.441,0,22.526,10.085,22.526,22.526v346.385
	c0,12.441-10.085,22.527-22.526,22.527h-35.613c-12.441,0-22.527-10.085-22.527-22.527V24.062
	C135.59,11.622,145.675,1.535,158.117,1.535z"/>
<path style="fill:#35B2D3;" d="M154.77,370.447V24.062c0-12.441,10.085-22.527,22.526-22.527h-19.18
	c-12.441,0-22.526,10.085-22.526,22.527v346.385c0,12.441,10.085,22.526,22.526,22.526h19.18
	C164.856,392.974,154.77,382.889,154.77,370.447z"/>
<g>
	<path style="fill:#047FA0;" d="M189.308,53.006h-26.77c-4.329,0-7.837-3.509-7.837-7.837s3.508-7.837,7.837-7.837h26.77
		c4.329,0,7.837,3.509,7.837,7.837S193.637,53.006,189.308,53.006z"/>
	<path style="fill:#047FA0;" d="M189.308,80.073h-26.77c-4.329,0-7.837-3.509-7.837-7.837s3.508-7.837,7.837-7.837h26.77
		c4.329,0,7.837,3.509,7.837,7.837S193.637,80.073,189.308,80.073z"/>
	<path style="fill:#047FA0;" d="M189.308,107.139h-26.77c-4.329,0-7.837-3.509-7.837-7.837s3.508-7.837,7.837-7.837h26.77
		c4.329,0,7.837,3.509,7.837,7.837S193.637,107.139,189.308,107.139z"/>
</g>
<path style="fill:#EFD873;" d="M333.299,54.796l34.436,9.079c12.03,3.171,19.21,15.495,16.039,27.525l-75.206,285.251
	c-3.171,12.03-15.495,19.21-27.525,16.039l-34.436-9.079c-12.03-3.171-19.21-15.495-16.039-27.525l75.207-285.252
	C308.946,58.805,321.27,51.624,333.299,54.796z"/>
<path style="fill:#E0C865;" d="M249.114,360.976l75.207-285.252c3.171-12.03,15.495-19.211,27.525-16.039l-18.546-4.89
	c-12.03-3.171-24.353,4.009-27.525,16.039l-75.207,285.251c-3.171,12.03,4.009,24.353,16.039,27.525l18.546,4.89
	C253.123,385.329,245.943,373.006,249.114,360.976z"/>
<g>
	<path style="fill:#CCB65C;" d="M352.343,112.778c-0.661,0-1.332-0.085-2.003-0.261l-25.886-6.824
		c-4.185-1.103-6.683-5.391-5.58-9.575c1.103-4.185,5.384-6.683,9.575-5.58l25.886,6.824c4.185,1.103,6.683,5.391,5.58,9.575
		C358.988,110.453,355.815,112.778,352.343,112.778z"/>
	<path style="fill:#CCB65C;" d="M345.441,138.95c-0.661,0-1.333-0.085-2.003-0.261l-25.885-6.824
		c-4.185-1.103-6.683-5.391-5.58-9.575c1.103-4.185,5.392-6.683,9.575-5.58l25.885,6.824c4.185,1.103,6.683,5.391,5.58,9.575
		C352.087,136.624,348.913,138.95,345.441,138.95z"/>
</g>
<g>
	<path style="fill:#BA7052;" d="M93.521,442.547v52.287c0,8.631-7.001,15.632-15.642,15.632H65.267
		c-8.631,0-15.632-7.001-15.632-15.632v-52.287H93.521z"/>
	<path style="fill:#BA7052;" d="M462.37,442.547v52.287c0,8.631-7.001,15.632-15.642,15.632h-12.612
		c-8.631,0-15.632-7.001-15.632-15.632v-52.287H462.37z"/>
</g>
<g>
	<rect x="49.633" y="442.546" style="fill:#A35D45;" width="43.886" height="23.061"/>
	<rect x="418.482" y="442.546" style="fill:#A35D45;" width="43.886" height="23.061"/>
</g>
<path style="fill:#BA7052;" d="M495.678,443.073H16.322C7.308,443.073,0,435.765,0,426.75v-18.556
	c0-9.014,7.308-16.322,16.322-16.322h479.356c9.014,0,16.322,7.308,16.322,16.322v18.556
	C512,435.765,504.692,443.073,495.678,443.073z"/>
<g>
</g>
<g>
</g>
<g>
</g>
<g>
</g>
<g>
</g>
<g>
</g>
<g>
</g>
<g>
</g>
<g>
</g>
<g>
</g>
<g>
</g>
<g>
</g>
<g>
</g>
<g>
</g>
<g>
</g>
</svg>
