<svg id="Fill_Outline" height="512" viewBox="0 0 64 64" width="512" xmlns="http://www.w3.org/2000/svg" data-name="Fill Outline"><path d="m21 3h40v28h-40z" fill="#57b7eb"/><path d="m27 7v-4h-6v28h40v-6h-16a18 18 0 0 1 -18-18z" fill="#4891d3"/><path d="m35 9h12v4h-12z" fill="#f9e109"/><path d="m37 21h8v4h-8z" fill="#c4f236"/><path d="m49 21h8v4h-8z" fill="#c4f236"/><path d="m25 21h8v4h-8z" fill="#a1d51c"/><circle cx="10" cy="11" fill="#a1d51c" r="7"/><path d="m13 15a7 7 0 0 1 -6.21-10.21 7 7 0 1 0 9.42 9.42 6.93 6.93 0 0 1 -3.21.79z" fill="#7ab92d"/><path d="m12 13h-.51a2.5 2.5 0 1 0 -3 0h-.49a2 2 0 0 0 -2 2v1.74a7 7 0 0 0 8 0v-1.74a2 2 0 0 0 -2-2z" fill="#f9e109"/><path d="m8 14v-1a2 2 0 0 0 -2 2v1.74a7 7 0 0 0 8 0v-.74h-4a2 2 0 0 1 -2-2z" fill="#fcbc04"/><path d="m9.5 10a2.45 2.45 0 0 1 .5-1.5 2.5 2.5 0 1 0 2 4 2.5 2.5 0 0 1 -2.5-2.5z" fill="#fcbc04"/><circle cx="10" cy="44" fill="#a1d51c" r="7"/><path d="m13 48a7 7 0 0 1 -6.21-10.21 7 7 0 1 0 9.42 9.42 6.93 6.93 0 0 1 -3.21.79z" fill="#7ab92d"/><path d="m12 46h-.51a2.5 2.5 0 1 0 -3 0h-.49a2 2 0 0 0 -2 2v1.74a7 7 0 0 0 8 0v-1.74a2 2 0 0 0 -2-2z" fill="#f9e109"/><path d="m8 47v-1a2 2 0 0 0 -2 2v1.74a7 7 0 0 0 8 0v-.74h-4a2 2 0 0 1 -2-2z" fill="#fcbc04"/><path d="m9.5 43a2.45 2.45 0 0 1 .5-1.5 2.5 2.5 0 1 0 2 4 2.5 2.5 0 0 1 -2.5-2.5z" fill="#fcbc04"/><circle cx="32" cy="54" fill="#a1d51c" r="7"/><path d="m35 58a7 7 0 0 1 -6.21-10.21 7 7 0 1 0 9.42 9.42 6.93 6.93 0 0 1 -3.21.79z" fill="#7ab92d"/><path d="m34 56h-.51a2.5 2.5 0 1 0 -3 0h-.49a2 2 0 0 0 -2 2v1.74a7 7 0 0 0 8 0v-1.74a2 2 0 0 0 -2-2z" fill="#f9e109"/><path d="m30 57v-1a2 2 0 0 0 -2 2v1.74a7 7 0 0 0 8 0v-.74h-4a2 2 0 0 1 -2-2z" fill="#fcbc04"/><path d="m31.5 53a2.45 2.45 0 0 1 .5-1.5 2.5 2.5 0 1 0 2 4 2.5 2.5 0 0 1 -2.5-2.5z" fill="#fcbc04"/><circle cx="53" cy="52" fill="#a1d51c" r="7"/><path d="m56 56a7 7 0 0 1 -6.21-10.21 7 7 0 1 0 9.42 9.42 6.93 6.93 0 0 1 -3.21.79z" fill="#7ab92d"/><path d="m55 54h-.51a2.5 2.5 0 1 0 -3 0h-.49a2 2 0 0 0 -2 2v1.74a7 7 0 0 0 8 0v-1.74a2 2 0 0 0 -2-2z" fill="#f9e109"/><path d="m51 55v-1a2 2 0 0 0 -2 2v1.74a7 7 0 0 0 8 0v-.74h-4a2 2 0 0 1 -2-2z" fill="#fcbc04"/><path d="m52.5 51a2.45 2.45 0 0 1 .5-1.5 2.5 2.5 0 1 0 2 4 2.5 2.5 0 0 1 -2.5-2.5z" fill="#fcbc04"/><path d="m37 25h8a17.89 17.89 0 0 1 -8-1.89z" fill="#a1d51c"/><g fill="#39519d"><path d="m61 2h-40a1 1 0 0 0 -1 1v7h-2.07a8 8 0 1 0 -1.37 5.57 1 1 0 0 0 -1.62-1.16 3 3 0 0 0 -1.68-2.13 3.43 3.43 0 0 0 .24-1.28 3.5 3.5 0 0 0 -7 0 3.43 3.43 0 0 0 .24 1.28 3 3 0 0 0 -1.67 2.13 6 6 0 1 1 10.93-3.41 1 1 0 0 0 1 1h3v19a1 1 0 0 0 1 1h4a1 1 0 0 0 0-2h-3v-18h12v1a1 1 0 0 0 1 1h5v2h-11a1 1 0 0 0 -1 1v3h-3a1 1 0 0 0 -1 1v4a1 1 0 0 0 1 1h3v7a3 3 0 0 0 3 3h9v3h-6a3 3 0 0 0 -3 3v1h-13.07a8 8 0 1 0 -1.37 5.57 1 1 0 0 0 -1.62-1.16 3 3 0 0 0 -1.68-2.13 3.43 3.43 0 0 0 .24-1.28 3.5 3.5 0 0 0 -7 0 3.43 3.43 0 0 0 .24 1.28 3 3 0 0 0 -1.67 2.13 6 6 0 1 1 10.93-3.41 1 1 0 0 0 1 1h14v1.07a8 8 0 1 0 5.57 1.37 1 1 0 1 0 -1.14 1.64 6 6 0 0 1 1.5 8.33 3 3 0 0 0 -1.67-2.13 3.43 3.43 0 0 0 .24-1.28 3.5 3.5 0 0 0 -7 0 3.43 3.43 0 0 0 .24 1.28 3 3 0 0 0 -1.67 2.13 6 6 0 0 1 4.93-9.41 1 1 0 0 0 1-1v-2h6a3 3 0 0 0 3-3v-1h2a3 3 0 0 0 3-3v-2h4a1 1 0 0 1 1 1v7.07a8 8 0 1 0 5.57 1.37 1 1 0 1 0 -1.14 1.64 6 6 0 0 1 1.5 8.33 3 3 0 0 0 -1.67-2.13 3.43 3.43 0 0 0 .24-1.28 3.5 3.5 0 0 0 -7 0 3.43 3.43 0 0 0 .24 1.28 3 3 0 0 0 -1.67 2.13 6 6 0 0 1 4.93-9.41 1 1 0 0 0 1-1v-8a3 3 0 0 0 -3-3h-4v-1a1 1 0 0 1 1-1h3a3 3 0 0 0 3-3v-3h3a1 1 0 0 0 0-2h-7v-2h7a1 1 0 0 0 0-2h-3v-3a1 1 0 0 0 -1-1h-11v-2h5a1 1 0 0 0 0-2h-11v-2h11a1 1 0 0 0 0-2h-12a1 1 0 0 0 -1 1v1h-12v-6h38v26h-3a1 1 0 0 0 0 2h4a1 1 0 0 0 1-1v-28a1 1 0 0 0 -1-1zm-53 12h.51a1 1 0 0 0 1-.69 1 1 0 0 0 -.35-1.11 1.5 1.5 0 1 1 1.78 0 1 1 0 0 0 -.35 1.11 1 1 0 0 0 1 .69h.41a1 1 0 0 1 1 1v1.18a5.93 5.93 0 0 1 -6 0v-1.18a1 1 0 0 1 1-1zm0 33h.51a1 1 0 0 0 1-.69 1 1 0 0 0 -.35-1.11 1.5 1.5 0 1 1 1.78 0 1 1 0 0 0 -.35 1.11 1 1 0 0 0 1 .69h.41a1 1 0 0 1 1 1v1.18a5.93 5.93 0 0 1 -6 0v-1.18a1 1 0 0 1 1-1zm22 10h.51a1 1 0 0 0 .95-.69 1 1 0 0 0 -.35-1.11 1.5 1.5 0 1 1 1.78 0 1 1 0 0 0 -.35 1.11 1 1 0 0 0 1 .69h.46a1 1 0 0 1 1 1v1.19a6 6 0 0 1 -6 0v-1.19a1 1 0 0 1 1-1zm21-2h.51a1 1 0 0 0 1-.69 1 1 0 0 0 -.35-1.11 1.5 1.5 0 1 1 1.78 0 1 1 0 0 0 -.35 1.11 1 1 0 0 0 1 .69h.41a1 1 0 0 1 1 1v1.19a6 6 0 0 1 -6 0v-1.19a1 1 0 0 1 1-1zm-25-33h6v2h-6zm5 12a1 1 0 0 1 -1-1v-7h3a1 1 0 0 0 1-1v-4a1 1 0 0 0 -1-1h-3v-2h10v2h-3a1 1 0 0 0 -1 1v4a1 1 0 0 0 1 1h3v8zm7-10v-2h6v2zm2 18a1 1 0 0 1 -1 1h-6v-1a1 1 0 0 1 1-1h6zm5-4a1 1 0 0 1 -1 1h-2v-3h3zm7-20v2h-3a1 1 0 0 0 -1 1v4a1 1 0 0 0 1 1h3v3a1 1 0 0 1 -1 1h-3a3 3 0 0 0 -3 3v1h-3v-8h3a1 1 0 0 0 1-1v-4a1 1 0 0 0 -1-1h-3v-2z"/><path d="m37 30h-4a1 1 0 0 0 0 2h4a1 1 0 0 0 0-2z"/><circle cx="10" cy="33" r="1"/><circle cx="10" cy="29" r="1"/><circle cx="10" cy="25" r="1"/><circle cx="10" cy="21" r="1"/></g></svg>