<?xml version="1.0" encoding="iso-8859-1"?>
<!-- Generator: Adobe Illustrator 19.0.0, SVG Export Plug-In . SVG Version: 6.00 Build 0)  -->
<svg version="1.1" id="Capa_1" xmlns="http://www.w3.org/2000/svg" xmlns:xlink="http://www.w3.org/1999/xlink" x="0px" y="0px"
	 viewBox="0 0 511.999 511.999" style="enable-background:new 0 0 511.999 511.999;" xml:space="preserve">
<path style="fill:#C3DA40;" d="M119.946,168.135H21.104c-4.295,0-7.777-3.482-7.777-7.777v-21.819
	c0-31.59,25.609-57.199,57.199-57.199l0,0c31.59,0,57.199,25.609,57.199,57.199v21.819
	C127.723,164.653,124.242,168.135,119.946,168.135z"/>
<path style="fill:#FF62A7;" d="M177.959,361.804c-11.081-7.316-18.199-15.702-21.159-24.927
	c-18.65-7.919-30.689-26.451-30.689-47.277c0-28.185,22.211-51.116,49.514-51.116h63.016c27.302,0,49.514,22.931,49.514,51.116
	s-22.211,51.115-49.514,51.115h-48.866c-0.42,4.218-0.25,8.609,0.505,13.058l2.265,13.358c0.312,1.84-1.721,3.165-3.278,2.137
	L177.959,361.804z"/>
<path style="fill:#FC5479;" d="M288.154,289.601c0-28.185-22.211-51.116-49.514-51.116h-63.016c-7.107,0-13.862,1.566-19.977,4.362
	c2.631,42.316,38.577,75.37,81.421,75.37h42.579C285.015,310.046,288.154,300.195,288.154,289.601z"/>
<path style="fill:#31D2F7;" d="M307.876,325.383c1.577-6.789,2.037-13.453,1.371-19.813h-61.182
	c-34.405,0-63.116-27.321-63.64-61.723c-0.534-35.014,27.794-63.669,62.688-63.669h79.088c34.478,0,63.165,27.467,63.569,61.943
	c0.304,25.874-15.031,48.972-38.916,58.768c-5.142,15.57-19.769,26.67-31.163,33.25l-11.738,6.778
	c-1.616,0.934-3.567-0.512-3.145-2.33L307.876,325.383z"/>
<path style="fill:#13ACE8;" d="M235.67,260.878c-0.534-35.015,27.794-63.669,62.688-63.669h71.311
	c-11.428-10.57-26.762-17.031-43.468-17.031h-79.088c-34.894,0-63.222,28.655-62.688,63.669
	c0.525,34.401,29.235,61.723,63.64,61.723h7.73C243.677,294.376,235.941,278.57,235.67,260.878z"/>
<path style="fill:#FFCF59;" d="M490.429,168.135h-98.842c-4.295,0-7.777-3.482-7.777-7.777v-21.819
	c0-31.59,25.609-57.199,57.199-57.199l0,0c31.59,0,57.199,25.609,57.199,57.199v21.819
	C498.206,164.653,494.724,168.135,490.429,168.135z"/>
<path style="fill:#FF62A7;" d="M119.946,473.664H21.104c-4.295,0-7.777-3.482-7.777-7.778v-21.819
	c0-31.59,25.609-57.199,57.199-57.199l0,0c31.59,0,57.199,25.609,57.199,57.199v21.819
	C127.723,470.181,124.242,473.664,119.946,473.664z"/>
<path style="fill:#31D2F7;" d="M490.429,473.664h-98.842c-4.295,0-7.777-3.482-7.777-7.778v-21.819
	c0-31.59,25.609-57.199,57.199-57.199l0,0c31.59,0,57.199,25.609,57.199,57.199v21.819
	C498.206,470.181,494.724,473.664,490.429,473.664z"/>
<path style="fill:#ADBC15;" d="M57.28,160.358v-21.819c0-23.801,14.541-44.201,35.222-52.817
	c-6.767-2.819-14.189-4.382-21.977-4.382l0,0c-31.59,0-57.199,25.609-57.199,57.199v21.819c0,4.295,3.482,7.777,7.778,7.777h43.953
	C60.762,168.135,57.28,164.653,57.28,160.358z"/>
<path style="fill:#FFB55C;" d="M427.762,160.358v-21.819c0-23.801,14.541-44.201,35.222-52.817
	c-6.767-2.819-14.189-4.382-21.977-4.382l0,0c-31.59,0-57.199,25.609-57.199,57.199v21.819c0,4.295,3.482,7.777,7.778,7.777h43.953
	C431.244,168.135,427.762,164.653,427.762,160.358z"/>
<path style="fill:#FC5479;" d="M57.28,465.885v-21.819c0-23.801,14.541-44.202,35.222-52.817
	c-6.767-2.819-14.189-4.382-21.977-4.382l0,0c-31.59,0-57.199,25.609-57.199,57.199v21.819c0,4.295,3.482,7.778,7.778,7.778h43.953
	C60.762,473.664,57.28,470.181,57.28,465.885z"/>
<path style="fill:#13ACE8;" d="M427.762,465.885v-21.819c0-23.801,14.541-44.202,35.222-52.817
	c-6.767-2.819-14.189-4.382-21.977-4.382l0,0c-31.59,0-57.199,25.609-57.199,57.199v21.819c0,4.295,3.482,7.778,7.778,7.778h43.953
	C431.244,473.664,427.762,470.181,427.762,465.885z"/>
<path style="fill:#FFCF59;" d="M241.742,511.797c-0.159,0-0.319-0.004-0.479-0.014c-9.898-0.562-19.844-1.707-29.564-3.404
	c-4.532-0.791-7.564-5.106-6.773-9.638c0.792-4.532,5.099-7.566,9.639-6.773c9.086,1.586,18.386,2.657,27.642,3.182
	c4.593,0.26,8.105,4.195,7.845,8.788C249.799,508.371,246.126,511.797,241.742,511.797z M270.52,511.782
	c-4.381,0-8.052-3.42-8.308-7.848c-0.266-4.593,3.242-8.531,7.834-8.796c9.255-0.536,18.555-1.616,27.642-3.211
	c4.528-0.798,8.849,2.232,9.644,6.763c0.797,4.532-2.232,8.849-6.763,9.645c-9.719,1.707-19.664,2.863-29.56,3.435
	C270.846,511.778,270.683,511.782,270.52,511.782z M185.108,501.908c-0.789,0-1.59-0.113-2.384-0.35
	c-9.482-2.828-18.9-6.249-27.995-10.17c-4.224-1.822-6.172-6.722-4.35-10.946c1.821-4.225,6.723-6.171,10.946-4.351
	c8.498,3.664,17.3,6.861,26.159,9.505c4.409,1.315,6.917,5.954,5.602,10.363C192.009,499.57,188.696,501.908,185.108,501.908z
	 M327.148,501.833c-3.585,0-6.895-2.333-7.977-5.943c-1.32-4.407,1.183-9.05,5.59-10.369c8.852-2.65,17.646-5.855,26.138-9.527
	c4.224-1.826,9.126,0.117,10.951,4.339c1.827,4.222-0.117,9.126-4.339,10.951c-9.087,3.929-18.497,7.359-27.971,10.196
	C328.743,501.718,327.939,501.833,327.148,501.833z M23.28,349.476c-3.401,0-6.592-2.096-7.825-5.475
	c-3.393-9.291-6.27-18.885-8.555-28.515c-1.061-4.476,1.707-8.966,6.183-10.028c4.486-1.061,8.966,1.707,10.028,6.183
	c2.133,8.999,4.823,17.964,7.993,26.645c1.578,4.321-0.646,9.104-4.968,10.681C25.194,349.313,24.229,349.476,23.28,349.476z
	 M488.804,349.245c-0.946,0-1.907-0.162-2.848-0.504c-4.323-1.573-6.552-6.353-4.98-10.676c3.164-8.694,5.844-17.668,7.97-26.669
	c1.057-4.479,5.55-7.249,10.021-6.193c4.477,1.056,7.25,5.543,6.194,10.02c-2.274,9.634-5.143,19.236-8.53,28.54
	C495.402,347.143,492.206,349.245,488.804,349.245z M9.999,293.538c-4.168,0-7.768-3.124-8.262-7.365
	C0.594,276.38,0.01,266.388,0,256.472c-0.004-4.6,3.721-8.333,8.321-8.338c0.003,0,0.006,0,0.009,0c4.597,0,8.325,3.724,8.329,8.321
	c0.01,9.279,0.555,18.627,1.623,27.787c0.534,4.569-2.738,8.706-7.308,9.239C10.648,293.52,10.321,293.538,9.999,293.538z
	 M502.031,293.276c-0.32,0-0.642-0.018-0.968-0.056c-4.569-0.528-7.846-4.661-7.317-9.231c1.059-9.161,1.595-18.51,1.595-27.788
	v-0.527c0-4.6,3.729-8.329,8.329-8.329c4.6,0,8.329,3.729,8.329,8.329v0.527c0,9.914-0.574,19.908-1.706,29.701
	C509.804,290.147,506.203,293.276,502.031,293.276z M9.961,236.05c-0.317,0-0.636-0.018-0.959-0.055
	c-4.571-0.523-7.851-4.652-7.327-9.223c1.126-9.838,2.843-19.704,5.101-29.323c1.052-4.48,5.537-7.26,10.015-6.205
	c4.479,1.051,7.256,5.535,6.205,10.013c-2.112,8.991-3.716,18.213-4.769,27.41C17.74,232.914,14.137,236.05,9.961,236.05z
	 M501.949,235.265c-4.165,0-7.762-3.119-8.261-7.357c-1.082-9.193-2.716-18.409-4.856-27.395c-1.066-4.475,1.697-8.968,6.172-10.034
	c4.475-1.068,8.967,1.697,10.034,6.172c2.29,9.614,4.038,19.474,5.195,29.308c0.538,4.569-2.73,8.708-7.298,9.246
	C502.603,235.246,502.274,235.265,501.949,235.265z M131.871,50.17c-2.872,0-5.666-1.487-7.211-4.15
	c-2.31-3.979-0.957-9.077,3.023-11.385c8.558-4.967,17.493-9.478,26.559-13.409c4.22-1.83,9.126,0.108,10.955,4.328
	c1.831,4.22-0.107,9.126-4.328,10.956c-8.472,3.674-16.824,7.891-24.823,12.533C134.729,49.807,133.29,50.17,131.871,50.17z
	 M379.478,49.795c-1.411,0-2.841-0.359-4.152-1.114c-8.022-4.623-16.394-8.817-24.884-12.467c-4.226-1.817-6.18-6.716-4.364-10.942
	s6.714-6.184,10.942-4.363c9.085,3.905,18.042,8.392,26.624,13.338c3.986,2.297,5.354,7.39,3.058,11.376
	C385.161,48.298,382.359,49.795,379.478,49.795z M184.596,27.311c-3.581,0-6.889-2.328-7.974-5.934
	c-1.325-4.406,1.173-9.051,5.579-10.375c9.468-2.846,19.213-5.162,28.962-6.885c4.534-0.799,8.851,2.223,9.652,6.754
	c0.801,4.53-2.223,8.851-6.754,9.652c-9.111,1.609-18.217,3.774-27.064,6.434C186.198,27.197,185.389,27.311,184.596,27.311z
	 M326.648,27.083c-0.786,0-1.583-0.111-2.376-0.347c-8.859-2.631-17.971-4.766-27.085-6.346c-4.533-0.786-7.571-5.097-6.784-9.63
	c0.786-4.533,5.101-7.569,9.63-6.784c9.752,1.69,19.502,3.976,28.983,6.791c4.41,1.31,6.923,5.947,5.613,10.356
	C333.555,24.742,330.24,27.083,326.648,27.083z M241.202,17.295c-4.377,0-8.047-3.414-8.308-7.839
	c-0.271-4.592,3.233-8.535,7.825-8.805c5.052-0.299,10.184-0.449,15.254-0.449c0.01,0,0.018,0,0.028,0
	c4.815,0,9.683,0.135,14.466,0.403c4.593,0.257,8.109,4.187,7.852,8.781c-0.255,4.593-4.164,8.115-8.781,7.852
	c-4.475-0.249-9.031-0.377-13.539-0.377c-0.008,0-0.016,0-0.025,0c-4.745,0-9.548,0.141-14.276,0.42
	C241.533,17.291,241.366,17.295,241.202,17.295z"/>
<g>
	<path style="fill:#FAD393;" d="M70.031,113.904c-20.438,0-37.066-16.628-37.066-37.067s16.628-37.067,37.066-37.067
		c20.439,0,37.067,16.628,37.067,37.067S90.47,113.904,70.031,113.904z"/>
	<path style="fill:#FAD393;" d="M440.513,113.904c-20.438,0-37.066-16.628-37.066-37.067s16.628-37.067,37.066-37.067
		c20.439,0,37.067,16.628,37.067,37.067S460.952,113.904,440.513,113.904z"/>
	<path style="fill:#FAD393;" d="M70.031,419.433c-20.438,0-37.066-16.629-37.066-37.067s16.628-37.067,37.066-37.067
		c20.439,0,37.067,16.628,37.067,37.067S90.47,419.433,70.031,419.433z"/>
	<path style="fill:#FAD393;" d="M440.513,419.433c-20.438,0-37.066-16.629-37.066-37.067s16.628-37.067,37.066-37.067
		c20.439,0,37.067,16.628,37.067,37.067S460.952,419.433,440.513,419.433z"/>
</g>
<g>
	<path style="fill:#EDB769;" d="M67.971,76.838c0-14.112,7.928-26.404,19.563-32.664c-5.216-2.806-11.177-4.404-17.504-4.404
		c-20.438,0-37.066,16.628-37.066,37.067s16.628,37.067,37.066,37.067c6.327,0,12.287-1.597,17.504-4.404
		C75.899,103.241,67.971,90.949,67.971,76.838z"/>
	<path style="fill:#EDB769;" d="M438.454,76.838c0-14.112,7.928-26.404,19.563-32.664c-5.217-2.806-11.177-4.404-17.504-4.404
		c-20.438,0-37.066,16.628-37.066,37.067s16.628,37.067,37.066,37.067c6.327,0,12.287-1.597,17.504-4.404
		C446.383,103.241,438.454,90.949,438.454,76.838z"/>
	<path style="fill:#EDB769;" d="M67.971,382.366c0-14.112,7.928-26.404,19.563-32.664c-5.216-2.806-11.177-4.404-17.504-4.404
		c-20.438,0-37.066,16.628-37.066,37.067s16.628,37.067,37.066,37.067c6.327,0,12.287-1.597,17.504-4.404
		C75.899,408.77,67.971,396.478,67.971,382.366z"/>
	<path style="fill:#EDB769;" d="M438.454,382.366c0-14.112,7.928-26.404,19.563-32.664c-5.217-2.806-11.177-4.404-17.504-4.404
		c-20.438,0-37.066,16.628-37.066,37.067s16.628,37.067,37.066,37.067c6.327,0,12.287-1.597,17.504-4.404
		C446.383,408.77,438.454,396.478,438.454,382.366z"/>
</g>
<g>
</g>
<g>
</g>
<g>
</g>
<g>
</g>
<g>
</g>
<g>
</g>
<g>
</g>
<g>
</g>
<g>
</g>
<g>
</g>
<g>
</g>
<g>
</g>
<g>
</g>
<g>
</g>
<g>
</g>
</svg>
