<svg height="512" viewBox="0 0 512 512" width="512" xmlns="http://www.w3.org/2000/svg" xmlns:xlink="http://www.w3.org/1999/xlink"><linearGradient id="linear-gradient" gradientUnits="userSpaceOnUse" x1="33.119" x2="494.776" y1="256.884" y2="256.884"><stop offset="0" stop-color="#5c6bc0"/><stop offset="1" stop-color="#2d2e83"/></linearGradient><radialGradient id="radial-gradient" cx="273.421" cy="326.884" gradientTransform="matrix(.765 -.644 .489 .58 -95.43 313.306)" gradientUnits="userSpaceOnUse" r="270.534"><stop offset="0"/><stop offset="1" stop-color="#fff" stop-opacity="0"/></radialGradient><radialGradient id="radial-gradient-2" cx="219.554" cy="151.425" fx="270.328" fy="299.6" gradientUnits="userSpaceOnUse" r="219.386"><stop offset="0" stop-color="#fff"/><stop offset=".0736" stop-color="#fff" stop-opacity=".824"/><stop offset=".1652" stop-color="#fff" stop-opacity=".633"/><stop offset=".262" stop-color="#fff" stop-opacity=".463"/><stop offset=".362" stop-color="#fff" stop-opacity=".32"/><stop offset=".4663" stop-color="#fff" stop-opacity=".203"/><stop offset=".5761" stop-color="#fff" stop-opacity=".113"/><stop offset=".6941" stop-color="#fff" stop-opacity=".05"/><stop offset=".8259" stop-color="#fff" stop-opacity=".012"/><stop offset="1" stop-color="#fff" stop-opacity="0"/></radialGradient><g isolation="isolate"><g id="Layer_1" data-name="Layer 1"><circle cx="263.948" cy="256.884" fill="url(#linear-gradient)" r="230.829"/><path d="m394.584 170.1588c-38.97-27.9666-75.2817-29.1257-82.22-29.2705l-4.4282 4.2021c49.7451 13.9109 73.8057 35.6463 73.8057 35.6463-42.6944-20.6216-82.9351-27.8731-117.794-28.31-34.8584.4367-75.0991 7.6882-117.7934 28.31 0 0 24.06-21.7354 73.8056-35.6463l-4.4287-4.2021c-6.9375.1448-43.25 1.3039-82.2192 29.2705 0 0-43.5454 73.0315-43.5454 162.7271 1.476-1.7391 27.0127 38.5444 92.8476 39.9934 0 0 11.0708-12.3169 19.0415-23.1846-38.3789-10.8679-52.8447-32.6033-52.8447-32.6033 39.9 24.6726 77.167 34.1646 115.1367 32.9314 37.97 1.2332 75.2368-8.2588 115.1367-32.9314 0 0-14.4658 21.7354-52.8447 32.6033 7.9712 10.8677 19.042 23.1846 19.042 23.1846 65.8345-1.449 91.3716-41.7325 92.8472-39.9934.0003-89.6959-43.5447-162.7271-43.5447-162.7271zm-184.2192 134.6157c-16.8276 0-30.4077-13.9109-30.4077-31.01s13.58-31.0095 30.4077-31.0095v.145c16.68 0 30.4082 13.9109 30.4082 31.01 0 16.9536-13.5801 30.8645-30.4082 30.8645zm107.166 0c-16.8276 0-30.4082-13.9109-30.4082-30.8645 0-17.0986 13.728-31.01 30.4082-31.01v-.145c16.8277 0 30.4077 13.9109 30.4077 31.0095s-13.58 31.01-30.4077 31.01z" fill="#fff"/><path d="m476.2084 166.0555a230.5153 230.5153 0 0 1 2.6011 34.522c0 129.4458-107.6157 234.3828-240.3662 234.3828-75.187 0-142.3008-33.67-186.3769-86.3813 35.4755 81.86 116.9838 139.1333 211.8813 139.1333 127.4829 0 230.8286-103.3452 230.8286-230.8286a230.0649 230.0649 0 0 0 -18.5679-90.8282z" fill="url(#radial-gradient)" mix-blend-mode="multiply"/><path d="m48.042 221.6193c21.96 56.25 116.2212 71.9993 210.5376 35.1772s158.5388-114.7753 131.0114-168.5214c-16.263-31.7537-69.4149-60.3151-132.1229-62.1182h-.3424c-100.9337 2.9301-185.6031 70.6641-213.8983 163.0386a77.3988 77.3988 0 0 0 4.8146 32.4238z" fill="url(#radial-gradient-2)"/></g></g></svg>