<svg id="Layer_1" height="512" viewBox="0 0 512 512" width="512" xmlns="http://www.w3.org/2000/svg" xmlns:xlink="http://www.w3.org/1999/xlink" data-name="Layer 1"><linearGradient id="linear-gradient" gradientUnits="userSpaceOnUse" x1="256.006" x2="256.006" y1="449.073" y2="161.973"><stop offset=".322" stop-color="#a163f5"/><stop offset=".466" stop-color="#b074ee"/><stop offset=".752" stop-color="#d8a1dd"/><stop offset=".898" stop-color="#efbad3"/></linearGradient><linearGradient id="linear-gradient-2" x1="366.438" x2="366.438" xlink:href="#linear-gradient" y1="449.073" y2="161.973"/><linearGradient id="linear-gradient-3" x1="67.079" x2="67.079" xlink:href="#linear-gradient" y1="449.073" y2="161.973"/><path d="m424.323 361.142c-7.707-5.982-64.577-50.47-114.636-98.913l26.741-26.741a116.347 116.347 0 0 0 121.572-27.053 116.113 116.113 0 0 0 24.76-127.535 6 6 0 0 0 -7.823-4.985l-.239.078a6 6 0 0 0 -3.118 2.361l-48.18 48.183a62.714 62.714 0 0 1 -88.688 0l-52.829-52.83a6 6 0 0 0 -8.763-.533l-.02.018a6.012 6.012 0 0 0 -1.388 2 115.934 115.934 0 0 0 -2.632 96.54l-23.223 23.222c-28.585-32.447-48.638-58.336-55.086-66.816a87.3 87.3 0 0 0 2.657-21.425 86.724 86.724 0 0 0 -104.059-84.97 6 6 0 0 0 -4.685 7.075c.017.086.044.167.064.25a5.958 5.958 0 0 0 1.658 3.205l53.034 53.035-13.976 40.157-40.157 13.975-53.034-53.033a6 6 0 0 0 -8.485 0 5.836 5.836 0 0 0 -.461.565 5.955 5.955 0 0 0 -1.74 3.185 86.808 86.808 0 0 0 106.546 100.613c8.521 6.49 34.58 26.7 66.828 55.079l-161.384 161.383a46.353 46.353 0 0 0 65.553 65.554l163.1-163.1a1349.917 1349.917 0 0 1 98.884 114.579c-.026.755-.055 1.509-.055 2.267a65.474 65.474 0 0 0 65.46 65.468 65.93 65.93 0 0 0 12.51-1.2 5.966 5.966 0 0 0 3.165-1.718c.138-.114.285-.209.414-.338a6 6 0 0 0 0-8.484l-38.375-38.376 9.721-27.932 27.932-9.721 38.375 38.375a5.935 5.935 0 0 0 2.739 1.543l.054.016c.129.032.255.075.385.1.059.014.116.032.175.045a6 6 0 0 0 7.075-4.685 65.415 65.415 0 0 0 -66.361-78.482zm-145.159-273.181 47.061 47.06a74.711 74.711 0 0 0 105.659 0l42.5-42.494a104.093 104.093 0 1 1 -195.215-4.566zm-4.5 95.159a116.379 116.379 0 0 0 49.852 47.313l-23.395 23.394q-.927-.919-1.85-1.842c-16.488-16.488-31.784-32.839-45.426-48.047zm-220.781-23.576a74.646 74.646 0 0 1 -21.8-56.354l47.4 47.4a6 6 0 0 0 6.215 1.425l46.452-16.166a6 6 0 0 0 3.695-3.7l16.165-46.449a6 6 0 0 0 -1.424-6.214l-47.406-47.4a74.716 74.716 0 1 1 -49.3 127.466zm36.762 304.756a34.354 34.354 0 0 1 -48.583-48.584l161.886-161.884c15 13.439 31.034 28.433 47.083 44.481q1.4 1.4 2.795 2.807zm168.871-174.471c-17.629-17.63-35.255-34.006-51.527-48.472-.009-.009-.014-.019-.023-.028-.031-.032-.069-.052-.1-.083-28.844-25.637-53.408-45.252-66.162-55.169a87.028 87.028 0 0 0 44.369-44.365c9.865 12.7 29.366 37.125 55.166 66.128.036.038.06.082.1.119.011.01.023.017.033.027 14.652 16.465 31.326 34.4 49.415 52.485 43.806 43.805 96.1 86.34 117.384 103.234a65.477 65.477 0 0 0 -44.453 44.295c-16.066-20.55-55.803-69.772-104.202-118.171zm181.984 101.834-34.227 11.911a6 6 0 0 0 -3.694 3.7l-11.916 34.226a6 6 0 0 0 1.424 6.214l32.254 32.254a53.467 53.467 0 1 1 54.629-54.617l-32.26-32.259a6 6 0 0 0 -6.21-1.429z" fill="url(#linear-gradient)"/><path d="m349.07 124.975a6 6 0 0 0 8.485 0l78.15-78.15a6 6 0 0 0 -2.056-9.825c-26.906-10.533-66.761-19.06-103.837.125-22.384 11.583-33 27.777-33.44 28.461a6 6 0 0 0 .8 7.494zm-13.201-77.475c24.274-12.349 52.725-13.178 84.687-2.5l-67.244 67.243-43.939-43.935a86.163 86.163 0 0 1 26.496-20.808z" fill="url(#linear-gradient-2)"/><path d="m48.887 421.093a25.727 25.727 0 1 0 36.384 0 25.755 25.755 0 0 0 -36.384 0zm27.9 27.9a13.727 13.727 0 1 1 4.021-9.707 13.637 13.637 0 0 1 -4.023 9.705z" fill="url(#linear-gradient-3)"/></svg>